{
  "asset": {
    "generator": "Khronos glTF Blender I/O v1.6.16",
    "version": "2.0"
  },
  "scene": 0,
  "scenes": [
    {
      "name": "Scene",
      "nodes": [
        0,
        1,
        2,
        3
      ]
    }
  ],
  "nodes": [
    {
      "mesh": 0,
      "name": "Cylinder",
      "scale": [
        0.01968592405319214,
        0.01968592405319214,
        0.01968592405319214
      ],
      "translation": [
        0.06935359537601471,
        -0.6130595207214355,
        0.2056531310081482
      ]
    },
    {
      "mesh": 1,
      "name": "Cylinder.001",
      "scale": [
        0.028782229870557785,
        0.028782229870557785,
        0.028782229870557785
      ],
      "translation": [
        0.003243774175643921,
        4.3455491065979,
        0.005618438124656677
      ]
    },
    {
      "mesh": 2,
      "name": "Circle",
      "scale": [
        1.0695093870162964,
        1.0695093870162964,
        1.0695093870162964
      ],
      "translation": [
        0,
        3.4731805324554443,
        0
      ]
    },
    {
      "mesh": 3,
      "name": "diva",
      "translation": [
        0,
        2.736619472503662,
        0
      ]
    }
  ],
  "materials": [
    {
      "doubleSided": true,
      "name": "Material",
      "pbrMetallicRoughness": {
        "metallicFactor": 0
      }
    },
    {
      "alphaMode": "BLEND",
      "doubleSided": true,
      "emissiveFactor": [
        1,
        1,
        1
      ],
      "name": "Material.002",
      "pbrMetallicRoughness": {
        "baseColorFactor": [
          0.42220765352249146,
          0.17422570288181305,
          0.018926570191979408,
          0.5045454502105713
        ],
        "metallicFactor": 0,
        "roughnessFactor": 0
      }
    },
    {
      "alphaMode": "BLEND",
      "doubleSided": true,
      "name": "glass",
      "pbrMetallicRoughness": {
        "baseColorFactor": [
          0.4113612473011017,
          0.2953272759914398,
          0.05388595536351204,
          0.5
        ],
        "roughnessFactor": 0
      }
    },
    {
      "doubleSided": true,
      "name": "Material.001",
      "pbrMetallicRoughness": {
        "baseColorFactor": [
          0.9729999899864197,
          0.5389999747276306,
          0.10899999737739563,
          1
        ],
        "roughnessFactor": 0.20897436141967773
      }
    }
  ],
  "meshes": [
    {
      "name": "Cylinder.006",
      "primitives": [
        {
          "attributes": {
            "POSITION": 0,
            "NORMAL": 1,
            "TEXCOORD_0": 2
          },
          "indices": 3,
          "material": 0
        }
      ]
    },
    {
      "name": "Cylinder.001",
      "primitives": [
        {
          "attributes": {
            "POSITION": 4,
            "NORMAL": 5,
            "TEXCOORD_0": 6
          },
          "indices": 7,
          "material": 1
        }
      ]
    },
    {
      "name": "Circle",
      "primitives": [
        {
          "attributes": {
            "POSITION": 8,
            "NORMAL": 9,
            "TEXCOORD_0": 10
          },
          "indices": 11,
          "material": 2
        }
      ]
    },
    {
      "name": "Cylinder",
      "primitives": [
        {
          "attributes": {
            "POSITION": 12,
            "NORMAL": 13
          },
          "indices": 14,
          "material": 3
        }
      ]
    }
  ],
  "accessors": [
    {
      "bufferView": 0,
      "componentType": 5126,
      "count": 504,
      "max": [
        12.321528434753418,
        242.60557556152344,
        26.138858795166016
      ],
      "min": [
        -38.088470458984375,
        166.77647399902344,
        -44.93354797363281
      ],
      "type": "VEC3"
    },
    {
      "bufferView": 1,
      "componentType": 5126,
      "count": 504,
      "type": "VEC3"
    },
    {
      "bufferView": 2,
      "componentType": 5126,
      "count": 504,
      "type": "VEC2"
    },
    {
      "bufferView": 3,
      "componentType": 5123,
      "count": 1380,
      "type": "SCALAR"
    },
    {
      "bufferView": 4,
      "componentType": 5126,
      "count": 63,
      "max": [
        4.398423671722412,
        21.167781829833984,
        4.398423671722412
      ],
      "min": [
        -4.398423671722412,
        -8.294597625732422,
        -4.39842414855957
      ],
      "type": "VEC3"
    },
    {
      "bufferView": 5,
      "componentType": 5126,
      "count": 63,
      "type": "VEC3"
    },
    {
      "bufferView": 6,
      "componentType": 5126,
      "count": 63,
      "type": "VEC2"
    },
    {
      "bufferView": 7,
      "componentType": 5123,
      "count": 324,
      "type": "SCALAR"
    },
    {
      "bufferView": 8,
      "componentType": 5126,
      "count": 256,
      "max": [
        0.985777735710144,
        0.05085209012031555,
        0.985777735710144
      ],
      "min": [
        -0.9857721924781799,
        -0.07530716061592102,
        -0.985777735710144
      ],
      "type": "VEC3"
    },
    {
      "bufferView": 9,
      "componentType": 5126,
      "count": 256,
      "type": "VEC3"
    },
    {
      "bufferView": 10,
      "componentType": 5126,
      "count": 256,
      "type": "VEC2"
    },
    {
      "bufferView": 11,
      "componentType": 5123,
      "count": 1434,
      "type": "SCALAR"
    },
    {
      "bufferView": 12,
      "componentType": 5126,
      "count": 3288,
      "max": [
        1.3209730386734009,
        1.284862995147705,
        1.3209731578826904
      ],
      "min": [
        -1.3209730386734009,
        -2.730447769165039,
        -1.3209729194641113
      ],
      "type": "VEC3"
    },
    {
      "bufferView": 13,
      "componentType": 5126,
      "count": 3288,
      "type": "VEC3"
    },
    {
      "bufferView": 14,
      "componentType": 5123,
      "count": 19650,
      "type": "SCALAR"
    }
  ],
  "bufferViews": [
    {
      "buffer": 0,
      "byteLength": 6048,
      "byteOffset": 0
    },
    {
      "buffer": 0,
      "byteLength": 6048,
      "byteOffset": 6048
    },
    {
      "buffer": 0,
      "byteLength": 4032,
      "byteOffset": 12096
    },
    {
      "buffer": 0,
      "byteLength": 2760,
      "byteOffset": 16128
    },
    {
      "buffer": 0,
      "byteLength": 756,
      "byteOffset": 18888
    },
    {
      "buffer": 0,
      "byteLength": 756,
      "byteOffset": 19644
    },
    {
      "buffer": 0,
      "byteLength": 504,
      "byteOffset": 20400
    },
    {
      "buffer": 0,
      "byteLength": 648,
      "byteOffset": 20904
    },
    {
      "buffer": 0,
      "byteLength": 3072,
      "byteOffset": 21552
    },
    {
      "buffer": 0,
      "byteLength": 3072,
      "byteOffset": 24624
    },
    {
      "buffer": 0,
      "byteLength": 2048,
      "byteOffset": 27696
    },
    {
      "buffer": 0,
      "byteLength": 2868,
      "byteOffset": 29744
    },
    {
      "buffer": 0,
      "byteLength": 39456,
      "byteOffset": 32612
    },
    {
      "buffer": 0,
      "byteLength": 39456,
      "byteOffset": 72068
    },
    {
      "buffer": 0,
      "byteLength": 39300,
      "byteOffset": 111524
    }
  ],
  "buffers": [
    {
      "byteLength": 150824,
      "uri": "data:application/octet-stream;base64,"
    }
  ]
}